<?xml version="1.0" standalone="no"?>
<!DOCTYPE svg PUBLIC "-//W3C//DTD SVG 20010904//EN"
 "http://www.w3.org/TR/2001/REC-SVG-20010904/DTD/svg10.dtd">
<svg version="1.0" xmlns="http://www.w3.org/2000/svg"
 width="3000.000000pt" height="3000.000000pt" viewBox="0 0 3000.000000 3000.000000"
 preserveAspectRatio="xMidYMid meet">
<metadata>
Created by potrace 1.16, written by Peter Selinger 2001-2019
</metadata>
<g transform="translate(0.000000,3000.000000) scale(0.100000,-0.100000)"
fill="#000000" stroke="none">
<path d="M13100 29208 c0 -34 -56 -120 -114 -176 -36 -34 -66 -67 -66 -72 0
-5 -13 -16 -30 -25 -16 -9 -30 -21 -30 -29 0 -7 -11 -19 -25 -26 -14 -7 -32
-24 -40 -37 -9 -12 -20 -23 -26 -23 -6 0 -20 -11 -31 -25 -11 -14 -28 -25 -38
-25 -12 0 -20 -8 -22 -22 -2 -16 -10 -23 -25 -22 -16 0 -25 -8 -32 -27 -7 -20
-17 -28 -38 -31 -19 -2 -32 -12 -41 -30 -9 -19 -21 -28 -37 -28 -18 0 -26 -7
-31 -24 -3 -15 -17 -29 -35 -35 -16 -5 -32 -17 -35 -25 -3 -8 -20 -18 -37 -22
-17 -3 -39 -17 -49 -29 -10 -13 -29 -26 -43 -29 -13 -3 -29 -15 -35 -26 -7
-13 -21 -20 -39 -20 -20 0 -31 -7 -39 -25 -8 -16 -23 -28 -42 -31 -16 -4 -30
-10 -30 -15 0 -15 -32 -39 -53 -39 -12 0 -35 -13 -50 -30 -16 -16 -38 -30 -49
-30 -11 0 -31 -11 -44 -25 -13 -14 -31 -25 -42 -25 -10 0 -29 -11 -42 -25 -13
-14 -34 -25 -47 -25 -13 0 -35 -12 -48 -26 -13 -14 -36 -27 -51 -28 -15 -2
-35 -14 -46 -30 -11 -15 -29 -26 -42 -26 -13 0 -40 -13 -61 -30 -21 -16 -48
-30 -61 -30 -13 0 -28 -9 -34 -20 -6 -10 -27 -24 -48 -29 -20 -6 -45 -20 -54
-31 -10 -11 -27 -20 -37 -20 -11 0 -32 -11 -48 -24 -16 -14 -42 -28 -57 -32
-15 -3 -38 -17 -51 -30 -13 -13 -35 -24 -48 -24 -15 0 -31 -10 -40 -24 -10
-14 -30 -26 -52 -30 -20 -4 -39 -14 -42 -23 -3 -8 -25 -23 -49 -34 -24 -10
-44 -23 -44 -28 0 -6 -18 -16 -41 -22 -22 -7 -44 -20 -50 -30 -5 -10 -23 -21
-41 -24 -18 -4 -40 -18 -51 -31 -12 -15 -29 -24 -47 -24 -21 0 -29 -6 -34 -25
-4 -15 -13 -25 -25 -25 -10 0 -32 -13 -49 -30 -18 -16 -38 -30 -45 -30 -7 0
-24 -12 -39 -27 -53 -56 -89 -77 -132 -76 -23 0 -33 -2 -23 -4 27 -7 20 -34
-12 -46 -16 -6 -32 -19 -34 -29 -3 -10 -16 -22 -29 -27 -14 -5 -32 -21 -41
-35 -10 -14 -24 -26 -32 -26 -9 0 -20 -11 -25 -25 -5 -14 -14 -25 -20 -25 -5
0 -34 -25 -64 -55 -29 -30 -59 -55 -65 -55 -6 0 -16 -11 -21 -24 -5 -13 -18
-27 -29 -31 -12 -3 -21 -12 -21 -19 0 -12 -20 -36 -137 -162 -17 -19 -33 -45
-35 -57 -2 -12 -13 -26 -25 -31 -12 -6 -25 -24 -30 -40 -5 -17 -18 -35 -30
-41 -15 -6 -24 -22 -28 -48 -4 -21 -13 -41 -20 -43 -7 -3 -19 -20 -26 -37 -7
-18 -20 -41 -29 -52 -10 -11 -20 -32 -23 -46 -4 -14 -18 -38 -32 -53 -14 -15
-25 -38 -25 -52 0 -14 -11 -36 -25 -50 -16 -16 -28 -42 -32 -70 -3 -25 -15
-54 -28 -68 -12 -14 -25 -44 -29 -69 -4 -24 -13 -53 -21 -63 -13 -17 -16 -17
-25 -4 -7 11 -10 -6 -10 -58 0 -70 -20 -132 -42 -132 -4 0 -8 -30 -8 -67 l0
-68 54 160 c217 640 565 1101 1143 1513 226 162 472 308 1092 651 571 316 884
520 1186 772 123 103 348 327 434 432 35 42 65 76 67 75 1 -2 -4 -34 -11 -73
-26 -138 -67 -437 -116 -860 -94 -811 -121 -1016 -185 -1385 -165 -963 -441
-1710 -832 -2257 -46 -64 -76 -110 -67 -103 23 19 97 118 115 153 7 15 33 48
56 73 23 24 45 58 49 74 3 15 17 36 31 44 13 9 24 23 24 32 0 9 14 29 30 46
17 16 30 39 30 50 0 11 11 33 25 50 14 16 25 40 25 52 0 13 9 31 20 41 11 10
22 32 26 51 3 18 17 42 30 55 14 13 24 34 24 50 0 37 9 59 25 59 20 0 29 19
35 70 3 31 10 45 20 45 31 1 41 17 39 63 -3 55 8 95 23 86 15 -10 28 16 28 59
0 45 15 77 35 77 12 0 15 15 15 69 0 51 4 70 14 74 19 7 36 69 36 128 0 30 6
51 16 59 28 24 39 55 44 129 3 47 10 76 18 79 6 2 12 -4 12 -14 0 -45 9 1 20
96 15 143 18 154 34 141 16 -14 26 44 26 155 0 82 15 130 36 113 9 -8 13 20
16 133 3 113 8 151 23 183 l18 40 7 -35 c3 -19 4 35 2 120 -4 151 -4 157 23
220 25 59 28 79 32 230 5 142 8 170 26 198 16 28 21 61 28 180 4 81 8 175 8
210 1 50 5 66 23 84 20 20 22 34 27 220 5 160 9 201 21 208 11 7 17 4 21 -8 4
-9 8 65 10 166 4 169 6 185 24 198 17 13 20 13 27 -3 6 -13 7 -11 3 7 -2 14
-5 49 -5 78 l0 52 -90 0 c-61 0 -90 -4 -90 -12z"/>
<path d="M3907 25053 c-4 -3 -20 -6 -37 -5 -24 1 -30 -3 -30 -21 0 -43 12 -63
43 -76 233 -93 551 -172 851 -211 329 -42 387 -44 1391 -45 865 0 986 -2 1120
-18 349 -41 582 -94 812 -183 765 -295 1422 -949 1649 -1641 66 -202 78 -283
79 -528 0 -178 -4 -236 -19 -305 -23 -109 -69 -253 -107 -337 -16 -36 -28 -68
-26 -70 5 -5 57 48 57 58 0 5 7 9 15 9 10 0 15 10 15 31 0 19 11 45 30 69 21
26 30 49 30 74 0 27 7 44 27 62 24 22 28 35 31 95 4 60 8 72 28 86 l24 15 0
335 0 334 -25 25 c-22 22 -25 33 -25 98 0 67 -2 74 -29 100 -22 21 -30 39 -33
78 -4 36 -12 56 -26 67 -12 9 -25 35 -30 57 -5 23 -19 51 -31 63 -11 11 -21
31 -21 44 0 13 -11 34 -24 46 -14 13 -26 39 -30 63 -5 28 -12 42 -26 45 -11 3
-22 15 -26 27 -3 11 -16 32 -29 46 -12 14 -25 37 -29 53 -3 15 -12 27 -19 27
-6 0 -21 13 -32 29 -91 131 -337 396 -397 427 -19 10 -28 22 -28 40 0 14 -4
23 -10 19 -18 -11 -50 6 -50 26 0 10 -6 19 -13 19 -7 0 -23 7 -35 16 -18 13
-21 19 -11 30 9 12 5 14 -23 14 -42 0 -75 29 -55 49 10 11 6 12 -19 7 -25 -6
-36 -1 -62 24 -18 16 -38 30 -46 30 -8 0 -22 10 -30 23 -9 12 -33 27 -53 33
-27 8 -38 16 -38 30 0 14 -9 20 -35 24 -46 8 -61 18 -58 38 2 14 -7 18 -44 20
-50 3 -83 27 -58 42 8 5 -7 8 -36 7 -41 -2 -56 3 -83 26 -23 19 -44 27 -71 27
-28 0 -42 5 -49 19 -12 21 -60 41 -102 41 -37 0 -59 9 -59 25 0 18 -23 25 -83
25 -65 0 -127 17 -127 34 0 16 -68 26 -171 25 -70 0 -124 15 -114 31 3 5 16
10 28 10 13 0 17 3 11 8 -7 4 -90 5 -185 2 -96 -3 -221 -2 -279 2 -58 4 -269
6 -470 5 -201 -1 -592 -2 -870 -2 -448 1 -512 3 -568 18 -43 12 -119 20 -245
24 -163 5 -187 8 -227 29 -34 17 -71 24 -150 30 -82 5 -111 11 -132 27 -24 18
-50 22 -190 28 -170 8 -202 13 -194 34 7 19 -100 36 -117 18z"/>
<path d="M14310 24839 c-33 -6 -33 -6 12 -8 47 -1 70 -14 43 -25 -28 -10 -111
-17 -250 -20 -77 -2 -161 -4 -187 -5 -35 -1 -48 -5 -48 -15 0 -25 -19 -29
-156 -35 -117 -6 -136 -9 -153 -27 -16 -17 -35 -22 -116 -27 -82 -5 -102 -9
-134 -31 -29 -20 -49 -26 -92 -26 -40 0 -70 -7 -110 -27 -45 -23 -66 -28 -127
-27 -40 0 -67 -3 -60 -7 10 -7 10 -12 -3 -25 -12 -11 -38 -17 -85 -19 -103 -4
-102 -4 -84 -15 27 -17 -6 -34 -76 -38 -56 -4 -67 -7 -74 -27 -7 -18 -19 -23
-62 -28 -41 -5 -57 -12 -71 -32 -14 -19 -28 -25 -57 -25 -27 0 -48 -8 -70 -27
-23 -19 -44 -27 -73 -27 -33 -1 -43 -5 -47 -21 -5 -16 -19 -22 -63 -29 -41 -7
-56 -13 -53 -23 7 -17 -29 -36 -54 -28 -26 8 -61 -12 -58 -33 2 -14 -6 -18
-44 -20 -41 -3 -48 -6 -57 -33 -8 -23 -16 -29 -40 -29 -20 0 -36 -8 -49 -25
-11 -14 -34 -28 -50 -31 -17 -3 -41 -17 -53 -30 -13 -14 -34 -24 -50 -24 -18
0 -28 -6 -32 -20 -5 -18 -22 -24 -64 -23 -7 1 -13 -10 -13 -23 0 -19 -7 -26
-29 -30 -16 -4 -41 -19 -55 -35 -15 -16 -32 -29 -39 -29 -8 0 -26 -13 -40 -30
-15 -16 -33 -30 -40 -30 -8 0 -24 -11 -37 -25 -13 -14 -29 -25 -36 -25 -6 0
-19 -11 -28 -25 -9 -14 -22 -25 -29 -25 -7 0 -38 -25 -69 -55 -31 -30 -60 -55
-65 -55 -5 0 -16 -11 -23 -25 -7 -14 -17 -25 -21 -25 -4 0 -36 -27 -71 -60
-34 -33 -66 -60 -70 -60 -5 0 -8 -6 -9 -12 0 -7 -20 -29 -43 -48 -24 -19 -50
-47 -59 -62 -9 -16 -23 -28 -30 -28 -8 0 -17 -10 -21 -22 -3 -13 -41 -60 -85
-106 -44 -46 -81 -90 -83 -100 -2 -9 -14 -22 -27 -29 -16 -7 -25 -21 -26 -38
0 -15 -10 -34 -21 -43 -11 -10 -28 -29 -37 -44 -10 -16 -24 -28 -32 -28 -10 0
-15 -11 -15 -33 0 -21 -8 -41 -20 -52 -10 -9 -24 -32 -30 -51 -6 -18 -19 -36
-29 -39 -12 -4 -21 -19 -25 -45 -6 -36 -11 -42 -32 -39 -12 1 -24 -26 -24 -57
0 -43 -39 -78 -41 -36 -1 33 -18 -20 -18 -61 -1 -41 -16 -77 -31 -77 -6 0 -10
8 -11 18 0 14 -2 14 -9 -3 -5 -11 -6 -34 -3 -52 6 -39 -14 -103 -32 -103 -8 0
-16 12 -18 28 -2 15 -4 -10 -3 -55 1 -73 -2 -84 -23 -107 -29 -31 -40 -106
-19 -124 12 -10 22 8 62 111 453 1161 1607 2058 3146 2442 1048 262 2131 258
3080 -10 814 -230 1550 -582 2845 -1363 1348 -813 1589 -950 2143 -1226 669
-332 1221 -542 1832 -697 154 -39 496 -109 648 -133 21 -3 22 0 22 60 l0 64
-37 0 c-52 0 -83 10 -83 26 0 15 -30 33 -46 27 -6 -2 -23 8 -37 23 -23 23 -39
28 -105 34 -49 4 -92 15 -117 28 -31 17 -57 22 -115 22 -73 0 -111 13 -132 44
-3 5 -44 11 -90 14 -71 4 -86 8 -103 27 -17 18 -35 24 -94 29 -62 5 -76 9 -93
31 -17 22 -27 25 -78 25 -67 0 -90 7 -90 26 0 13 -22 19 -105 28 -26 3 -45 12
-54 25 -11 17 -24 21 -63 21 -37 0 -57 6 -82 25 -23 18 -45 25 -75 25 -35 0
-48 6 -69 30 -23 26 -34 30 -75 30 -39 0 -50 4 -54 19 -6 25 -39 40 -93 43
-34 2 -45 7 -45 20 0 25 -10 30 -56 30 -51 -1 -80 13 -73 33 5 12 -3 15 -40
15 -37 0 -52 5 -72 25 -17 18 -36 25 -62 25 -27 0 -41 6 -57 26 -14 17 -33 27
-63 31 -33 4 -46 11 -52 28 -7 18 -20 24 -59 30 -41 5 -50 11 -53 28 -2 18
-11 23 -53 27 -42 4 -50 8 -53 28 -3 18 -10 22 -41 22 -24 0 -49 9 -71 25 -19
14 -44 25 -56 25 -13 0 -29 8 -36 18 -16 23 -50 42 -76 42 -11 0 -27 11 -35
24 -11 16 -30 26 -58 31 -33 6 -40 10 -36 26 4 15 -2 20 -32 25 -61 10 -71 15
-71 35 0 15 -7 19 -33 19 -21 0 -41 8 -51 19 -17 18 -17 20 1 31 16 10 15 11
-7 5 -42 -11 -74 -6 -90 13 -20 24 -53 42 -78 42 -11 0 -22 9 -25 20 -3 13
-19 23 -50 31 -29 7 -47 17 -50 29 -3 12 -18 21 -41 25 -43 9 -67 32 -45 46
10 6 1 9 -29 9 -32 0 -49 6 -68 25 -14 14 -31 25 -39 25 -7 0 -26 11 -42 24
-16 14 -41 28 -55 31 -14 4 -35 18 -47 31 -11 13 -30 24 -41 24 -12 0 -32 12
-45 26 -14 15 -39 29 -57 33 -24 5 -34 13 -36 29 -3 16 -10 22 -28 22 -36 0
-64 18 -64 39 0 15 -7 19 -33 18 -23 -1 -40 7 -59 26 -15 15 -35 27 -46 27
-10 0 -28 11 -40 25 -12 14 -30 25 -40 25 -10 0 -29 11 -42 24 -12 14 -36 28
-52 31 -16 4 -35 17 -44 30 -8 12 -29 25 -46 29 -17 3 -37 15 -45 25 -7 11
-26 22 -42 26 -16 3 -37 17 -47 31 -12 14 -29 24 -45 24 -15 0 -34 10 -47 25
-12 14 -28 25 -36 25 -8 0 -28 11 -44 25 -17 14 -37 25 -45 25 -9 0 -29 14
-45 30 -18 17 -41 30 -56 30 -16 0 -32 10 -44 28 -12 17 -31 28 -47 30 -15 1
-36 13 -47 27 -11 14 -30 25 -42 25 -12 0 -32 11 -44 25 -12 14 -33 25 -46 25
-13 0 -34 11 -47 25 -13 13 -34 25 -46 25 -12 0 -35 11 -52 25 -16 14 -40 28
-52 30 -13 3 -32 16 -43 29 -12 14 -37 27 -58 30 -21 4 -38 12 -38 17 0 20
-29 39 -60 39 -25 0 -33 5 -41 28 -8 22 -15 28 -37 26 -40 -2 -75 13 -68 31 4
12 -3 15 -35 15 -29 0 -47 7 -65 25 -14 14 -33 25 -42 25 -35 0 -60 12 -72 36
-11 19 -21 24 -51 24 -31 0 -40 5 -51 28 -11 23 -20 27 -61 30 -40 3 -49 7
-57 27 -9 23 -23 28 -100 38 -8 1 -15 11 -15 21 0 15 -10 19 -55 23 -61 5 -96
26 -70 44 11 7 4 8 -23 3 -36 -6 -97 10 -97 26 0 12 -50 30 -86 30 -27 0 -37
5 -41 19 -6 24 -23 31 -93 40 -39 5 -54 11 -52 20 4 19 -17 31 -54 31 -53 0
-94 12 -94 26 0 8 5 14 11 14 5 0 7 5 4 11 -4 6 -24 8 -51 4 -53 -7 -124 10
-124 30 0 7 6 16 13 18 6 3 -24 5 -69 4 -70 -1 -84 2 -114 23 -26 18 -51 25
-100 28 -47 3 -71 10 -87 24 -26 24 -80 37 -154 38 -46 0 -59 4 -77 25 -21 23
-28 25 -124 26 -124 2 -163 9 -162 30 1 18 -74 26 -276 29 -63 0 -125 3 -137
5 -13 3 -34 7 -48 10 -40 9 -19 25 32 25 26 0 44 3 40 6 -7 8 -1003 11 -1047
3z"/>
<path d="M14850 22683 c-415 -6 -903 -44 -1330 -103 -2692 -376 -5137 -1740
-6889 -3844 -1979 -2375 -2853 -5467 -2420 -8556 117 -832 336 -1669 641
-2442 38 -98 72 -178 76 -178 4 0 286 279 627 620 l619 619 -97 288 c-156 465
-248 812 -342 1278 -209 1046 -255 2109 -134 3155 380 3301 2328 6198 5241
7793 1227 672 2619 1093 4008 1211 481 41 1173 46 1610 12 205 -17 652 -65
659 -72 2 -2 -386 -4 -862 -4 -477 0 -867 -4 -867 -8 0 -24 -116 -36 -375 -39
-320 -4 -306 -3 -277 -11 13 -4 23 -11 23 -17 0 -16 -66 -24 -221 -26 -160 -2
-195 -7 -195 -29 0 -17 -73 -27 -212 -29 -72 -1 -86 -4 -105 -23 -20 -20 -37
-24 -136 -29 -98 -6 -118 -10 -145 -30 -26 -19 -49 -25 -127 -30 -70 -4 -105
-11 -135 -27 -33 -18 -56 -22 -139 -22 -89 0 -98 -2 -80 -14 18 -14 18 -15 -9
-25 -16 -6 -61 -11 -100 -11 -76 0 -92 -6 -92 -30 0 -11 -17 -17 -69 -22 -95
-9 -113 -15 -119 -37 -4 -15 -16 -19 -74 -23 -58 -3 -75 -8 -102 -31 -25 -21
-43 -27 -80 -27 -35 0 -56 -7 -82 -26 -29 -21 -44 -25 -99 -24 -87 2 -87 2
-65 -13 26 -20 4 -31 -75 -37 -57 -4 -65 -8 -65 -25 0 -17 -8 -20 -50 -23 -59
-3 -91 -17 -98 -43 -4 -16 -15 -19 -61 -19 -31 0 -56 -4 -56 -8 0 -24 -43 -52
-81 -52 -29 0 -47 -7 -65 -25 -15 -15 -36 -25 -53 -25 -16 0 -40 -9 -54 -20
-19 -15 -101 -40 -132 -40 -2 0 -5 -9 -8 -20 -4 -16 -14 -20 -46 -20 -34 0
-43 -4 -52 -24 -12 -24 -35 -36 -76 -36 -13 0 -30 -11 -39 -25 -11 -17 -25
-25 -45 -25 -17 0 -42 -12 -62 -30 -19 -16 -46 -30 -59 -30 -14 0 -35 -11 -48
-25 -13 -14 -34 -25 -46 -25 -12 0 -36 -11 -52 -25 -17 -14 -39 -25 -51 -25
-11 0 -34 -13 -51 -30 -17 -17 -41 -30 -55 -30 -15 0 -31 -10 -41 -25 -12 -19
-25 -25 -50 -25 -23 0 -34 -5 -34 -14 0 -18 -38 -46 -63 -46 -11 0 -28 -11
-38 -24 -11 -14 -33 -27 -49 -31 -17 -4 -34 -14 -39 -24 -6 -10 -28 -23 -50
-30 -23 -6 -41 -18 -41 -25 0 -15 -21 -26 -47 -26 -8 0 -24 -11 -35 -25 -12
-16 -29 -25 -48 -25 -22 0 -33 -8 -49 -36 -12 -20 -26 -32 -32 -28 -17 10 -29
-16 -29 -67 0 -34 5 -49 16 -53 40 -15 78 -4 167 50 387 238 600 357 917 513
1698 839 3692 1175 6095 1026 537 -34 1457 -123 1950 -190 22 -3 -160 60 -405
141 l-445 147 -185 7 c-102 4 -194 11 -205 16 -18 7 -17 9 10 20 23 10 25 13
10 13 -11 1 -166 2 -345 4 -309 4 -423 13 -456 38 -5 5 -30 8 -55 8 -24 -1
-114 13 -199 29 -707 139 -1486 206 -2270 195z"/>
<path d="M9810 20380 c-30 -17 -60 -30 -67 -30 -15 0 -33 -32 -33 -60 0 -12
-10 -25 -25 -32 -17 -7 -27 -22 -31 -45 -7 -36 -31 -55 -44 -33 -4 7 -9 -13
-12 -45 -4 -46 -10 -61 -29 -75 -16 -13 -24 -29 -25 -54 0 -21 -9 -45 -22 -59
-11 -12 -23 -44 -28 -72 -4 -27 -17 -66 -29 -85 -17 -26 -24 -57 -29 -117 -4
-49 -15 -100 -28 -130 -18 -40 -22 -70 -24 -193 -2 -129 -2 -135 6 -59 27 276
117 531 279 790 l61 96 57 11 c248 47 464 0 686 -150 88 -58 252 -227 323
-333 187 -275 284 -582 284 -895 -1 -250 -33 -422 -175 -920 -139 -489 -185
-723 -185 -951 l0 -96 40 -7 c26 -4 40 -11 40 -21 0 -8 6 -15 13 -15 15 0 48
94 46 131 -1 17 -3 19 -6 7 -5 -21 -14 -23 -31 -6 -15 15 -17 334 -2 372 12
34 28 33 33 -1 3 -16 4 42 3 127 -1 146 1 157 22 192 17 27 25 59 29 113 4 55
11 80 26 96 13 14 23 46 31 103 8 57 18 90 34 110 16 21 22 42 22 80 0 73 9
99 31 93 17 -5 19 1 20 46 1 99 14 160 37 175 20 13 22 23 22 109 0 78 4 104
26 154 25 60 25 66 23 276 -2 204 -3 217 -25 262 -20 38 -24 62 -25 141 0 52
-3 89 -6 83 -16 -41 -53 20 -53 88 0 17 -9 32 -25 43 -18 12 -25 25 -25 49 0
24 -9 41 -30 62 -17 16 -30 36 -28 45 3 26 -11 55 -34 65 -12 6 -25 22 -29 37
-4 15 -13 34 -21 42 -7 7 -22 26 -33 42 -11 15 -39 47 -62 71 -24 23 -43 47
-43 53 0 6 -11 16 -25 22 -14 6 -25 19 -25 28 0 9 -15 23 -32 31 -21 9 -32 21
-32 32 1 11 -8 19 -25 23 -35 9 -51 23 -45 39 4 9 -8 16 -38 22 -34 7 -44 13
-46 31 -3 18 -10 22 -41 22 -24 0 -49 9 -71 25 -24 18 -47 25 -79 25 -33 0
-51 6 -69 23 -22 21 -33 22 -185 24 l-162 3 -55 -30z"/>
<path d="M9150 11367 c-3601 -3604 -5844 -5857 -5872 -5897 -105 -148 -185
-342 -209 -508 -19 -134 -7 -366 25 -487 94 -359 367 -660 716 -792 221 -84
504 -94 740 -27 110 32 287 119 370 183 36 27 355 340 709 694 l644 645 65
-87 c500 -657 1125 -1306 1772 -1837 943 -773 1994 -1376 3140 -1802 856 -318
1780 -531 2690 -621 423 -42 523 -46 1115 -46 608 0 748 7 1195 56 2808 306
5391 1697 7209 3883 l124 148 -139 142 c-415 422 -1050 1056 -1059 1055 -5 0
-35 -32 -65 -72 -351 -461 -907 -1028 -1426 -1453 -1390 -1139 -3133 -1862
-4914 -2038 -352 -35 -476 -40 -935 -41 -556 0 -820 18 -1300 86 -1242 176
-2415 594 -3485 1242 -902 546 -1700 1240 -2395 2082 -138 167 -385 488 -385
500 0 4 1688 1698 3752 3764 l3752 3756 5001 -5003 c2750 -2752 5029 -5026
5065 -5054 83 -63 261 -150 370 -182 553 -158 1130 98 1377 610 77 161 104
273 110 461 6 184 -6 280 -53 423 -39 116 -92 221 -162 320 -47 67 -11688
11730 -11707 11730 -5 0 -2631 -2625 -5835 -5833z"/>
<path d="M17272 9799 c2 -8 19 -22 37 -31 18 -9 43 -26 55 -37 12 -12 27 -21
33 -21 18 0 193 -151 262 -226 112 -121 181 -222 251 -364 23 -47 48 -98 57
-115 25 -50 83 -232 90 -283 4 -33 15 -56 35 -75 l28 -29 0 -364 0 -365 -25
-22 c-19 -17 -29 -40 -40 -100 -8 -43 -19 -86 -24 -95 -5 -10 -17 -46 -26 -81
-9 -35 -25 -79 -36 -99 -10 -20 -19 -44 -19 -52 0 -17 -124 -266 -144 -290 -7
-8 -23 -33 -35 -55 -40 -70 -160 -221 -253 -320 -80 -84 -300 -281 -368 -328
-14 -10 -43 -31 -65 -48 -43 -32 -102 -74 -144 -101 -40 -27 -53 -36 -91 -62
-19 -14 -48 -33 -65 -42 -16 -9 -43 -27 -58 -40 -16 -13 -35 -24 -42 -24 -7 0
-27 -11 -43 -25 -17 -14 -33 -25 -37 -25 -5 0 -23 -11 -41 -25 -18 -14 -37
-25 -42 -25 -5 0 -26 -13 -47 -30 -21 -16 -45 -30 -55 -30 -9 0 -27 -11 -39
-24 -13 -13 -35 -27 -49 -31 -14 -3 -39 -17 -55 -31 -16 -13 -34 -24 -41 -24
-7 0 -23 -11 -36 -25 -13 -14 -31 -25 -39 -25 -9 0 -35 -13 -58 -28 -90 -58
-131 -82 -140 -82 -5 0 -20 -11 -33 -25 -13 -14 -31 -25 -40 -25 -10 0 -34
-13 -55 -30 -21 -16 -43 -30 -50 -30 -7 0 -18 -7 -26 -16 -7 -9 -27 -23 -44
-32 -49 -26 -94 -55 -131 -82 -18 -14 -48 -35 -66 -48 -187 -129 -387 -323
-479 -462 -85 -130 -109 -169 -109 -177 0 -5 -10 -26 -21 -48 -12 -22 -35 -80
-51 -130 -25 -76 -28 -100 -23 -152 6 -58 9 -63 30 -63 28 0 45 37 24 51 -10
6 -11 9 -1 9 6 0 12 11 12 24 0 14 4 27 9 30 5 3 12 23 15 43 4 21 18 59 32
85 13 26 24 54 24 61 0 7 11 28 25 47 14 19 25 42 25 51 0 10 10 30 23 46 12
15 29 41 36 58 7 16 21 35 32 43 10 7 19 20 19 29 0 33 216 260 366 387 36 29
62 33 70 11 9 -23 25 -6 18 20 -4 16 0 29 13 39 44 40 80 63 104 69 15 4 34
18 43 32 9 14 23 25 30 25 8 0 28 11 44 25 34 28 60 32 68 10 10 -25 24 -17
24 14 0 36 23 61 55 61 14 0 29 9 35 21 7 11 26 27 44 34 18 8 38 21 46 29 16
20 59 21 66 1 4 -8 12 -15 19 -15 10 0 13 13 12 42 -2 40 -1 42 33 49 19 4 41
17 49 28 7 12 22 21 32 21 10 0 33 13 51 29 26 22 38 27 56 20 12 -5 22 -14
22 -21 1 -23 30 25 30 48 0 22 17 34 51 34 10 0 26 11 35 25 9 14 27 28 39 31
13 3 31 14 41 25 20 23 62 25 70 4 4 -8 12 -15 19 -15 10 0 13 13 12 41 -2 38
1 43 28 52 17 5 43 21 58 33 16 13 34 24 41 24 7 0 23 11 36 24 12 14 35 28
50 31 16 3 31 12 34 20 3 8 22 23 43 35 21 11 58 36 83 55 25 18 53 34 64 34
16 1 18 -4 12 -31 l-6 -33 20 25 c11 14 20 34 19 45 -2 38 1 43 59 86 31 23
66 51 77 61 43 39 83 68 94 68 5 0 16 10 22 23 7 12 42 50 78 83 125 116 299
331 341 422 10 23 24 42 30 42 6 0 15 12 20 28 6 15 21 50 34 77 13 28 38 79
55 114 17 35 31 70 31 78 0 7 9 31 19 51 11 21 22 56 26 77 4 22 17 74 30 115
13 41 29 106 34 145 6 42 16 74 25 81 24 17 24 601 1 618 -10 7 -21 48 -31
111 -8 55 -23 118 -34 140 -10 22 -22 58 -28 80 -10 41 -47 138 -63 165 -5 8
-21 38 -35 65 -36 72 -77 140 -95 162 -9 10 -20 28 -23 41 -4 12 -11 22 -17
22 -5 0 -20 17 -33 38 -28 45 -163 180 -225 225 -24 18 -59 47 -77 65 -19 17
-41 32 -49 32 -7 0 -27 11 -43 25 -17 14 -37 25 -46 25 -8 0 -24 9 -34 20 -24
25 -97 41 -90 19z"/>
<path d="M14050 9365 c0 -17 30 -35 58 -35 10 0 29 -11 42 -25 13 -14 29 -25
36 -25 7 0 29 -13 47 -30 19 -16 37 -30 41 -30 10 0 98 -69 193 -153 143 -125
268 -270 333 -386 19 -35 45 -75 56 -89 19 -23 24 -24 38 -13 33 28 7 115 -58
192 -14 17 -26 34 -26 39 0 14 -262 273 -314 310 -27 19 -65 50 -84 68 -18 17
-40 32 -47 32 -7 0 -29 14 -50 30 -21 17 -43 30 -50 30 -6 0 -20 9 -30 20 -10
11 -35 23 -56 26 -26 4 -40 13 -48 30 -8 19 -18 24 -46 24 -24 0 -35 -5 -35
-15z"/>
<path d="M15480 9305 c-14 -8 -43 -23 -66 -34 -22 -11 -49 -29 -59 -41 -10
-11 -22 -20 -27 -20 -18 0 -133 -89 -185 -142 -51 -52 -79 -101 -67 -119 13
-21 43 -6 84 44 25 30 75 78 113 108 37 30 75 62 85 72 27 29 114 85 144 92
30 8 45 34 26 47 -17 10 -19 10 -48 -7z"/>
<path d="M15776 9021 c-10 -11 -32 -23 -50 -27 -17 -4 -42 -15 -56 -26 -14
-11 -54 -38 -90 -61 -107 -68 -352 -320 -450 -463 -8 -12 -30 -43 -48 -69 -18
-26 -42 -65 -55 -87 -12 -22 -34 -61 -49 -87 -47 -81 -88 -173 -88 -196 0 -12
9 -30 21 -41 27 -24 50 -10 66 42 6 21 28 71 49 109 20 39 45 88 56 110 11 21
28 51 38 65 9 14 31 48 48 75 72 116 246 327 283 343 16 7 29 20 29 30 0 22
215 202 241 202 11 0 23 10 28 22 6 16 21 26 52 33 28 7 45 17 47 28 5 24 -50
23 -72 -2z"/>
<path d="M13016 8911 c-10 -11 -28 -22 -42 -25 -30 -8 -124 -79 -183 -138 -71
-71 -172 -232 -186 -297 -4 -18 -15 -52 -26 -75 -12 -28 -22 -89 -30 -179 -18
-222 5 -412 72 -602 33 -92 54 -143 69 -165 10 -14 21 -36 25 -50 4 -14 15
-34 24 -45 10 -11 30 -42 45 -68 79 -138 310 -366 585 -577 40 -30 89 -68 111
-85 21 -16 55 -41 75 -55 20 -14 65 -47 100 -75 35 -27 83 -63 105 -80 23 -16
55 -42 73 -56 18 -14 84 -67 147 -118 211 -169 420 -391 518 -551 98 -162 161
-348 174 -520 5 -69 11 -145 13 -169 4 -54 25 -81 25 -32 0 34 47 151 60 151
14 0 21 44 23 138 l2 92 -27 0 c-33 0 -45 19 -58 92 -6 29 -18 64 -28 78 -11
14 -22 39 -26 55 -4 17 -15 39 -25 50 -10 11 -37 52 -60 90 -52 86 -86 134
-105 149 -8 6 -36 36 -63 67 -26 31 -82 87 -123 124 -86 78 -101 100 -94 135
5 23 4 24 -9 8 -8 -10 -21 -18 -28 -18 -8 0 -21 8 -30 18 -8 9 -30 28 -48 42
-18 14 -52 41 -75 60 -23 19 -55 44 -70 55 -16 11 -48 36 -71 55 -24 19 -79
61 -123 93 -44 32 -88 67 -98 78 -9 10 -22 19 -29 19 -7 0 -26 12 -42 28 -17
15 -48 38 -68 52 -21 14 -50 37 -64 53 -14 15 -29 27 -34 27 -13 0 -253 209
-318 277 -87 91 -199 232 -199 252 0 10 -10 26 -21 37 -12 10 -30 38 -39 60
-10 23 -23 45 -29 48 -6 4 -15 25 -22 48 -6 23 -18 53 -27 66 -9 14 -24 53
-33 86 -9 34 -24 79 -32 101 -8 22 -18 77 -22 123 -7 79 -6 84 14 89 20 5 21
11 21 158 0 127 -3 154 -15 159 -27 10 -19 104 15 184 17 39 30 77 30 83 0 7
11 29 23 48 13 20 40 61 60 92 41 64 142 169 163 169 9 0 14 -11 14 -32 l0
-32 17 23 c9 14 17 40 17 59 1 31 5 37 36 47 19 6 36 19 38 28 5 24 -50 22
-72 -2z"/>
</g>
</svg>
